<?xml version="1.0" encoding="UTF-8"?>
<svg version="1.1" xmlns="http://www.w3.org/2000/svg" width="250" height="250" >
<path d="M0 0 C0 3.63 0 7.26 0 11 C-0.88260498 11.14920898 -1.76520996 11.29841797 -2.67456055 11.45214844 C-5.97455531 12.03640269 -9.25824125 12.66746916 -12.54272461 13.33154297 C-13.96004085 13.60806887 -15.3811386 13.86593959 -16.80541992 14.10400391 C-25.36247639 15.38791443 -25.36247639 15.38791443 -31.92114258 20.51269531 C-33.24858096 23.64408843 -34.15345566 26.70753065 -35 30 C-35.73049619 32.07327011 -36.47643232 34.14116965 -37.23828125 36.203125 C-37.9342276 38.21718692 -38.6248617 40.23308644 -39.3125 42.25 C-41.1378125 47.57125 -41.1378125 47.57125 -43 53 C-30.79 53.33 -18.58 53.66 -6 54 C-7.12501877 70.87528152 -7.12501877 70.87528152 -8.0246582 77.49650574 C-8.12281232 78.22928861 -8.22096643 78.96207149 -8.32209492 79.71705991 C-8.64355545 82.10786298 -8.97210032 84.49763101 -9.30078125 86.88745117 C-9.53618483 88.62693589 -9.77114703 90.36648039 -10.00570679 92.1060791 C-10.6374406 96.78156594 -11.27543146 101.45617866 -11.91476059 106.13063216 C-12.58500509 111.03831172 -13.24978241 115.94673212 -13.9152832 120.85505676 C-15.03155128 129.08198355 -16.15168999 137.30837573 -17.27441406 145.53442383 C-18.5722349 155.04357407 -19.86492444 164.55341054 -21.1546793 174.06365794 C-22.53061321 184.20912006 -23.9099698 194.35411455 -25.29049301 204.4989531 C-25.68748635 207.41786836 -26.08387068 210.33686579 -26.48013306 213.25588036 C-27.1017955 217.83385243 -27.72577079 222.41150354 -28.35155106 226.98891449 C-28.58089175 228.66903847 -28.80947244 230.34926639 -29.03724289 232.02960396 C-29.34786378 234.32013033 -29.6612407 236.610263 -29.9753418 238.90031433 C-30.15010544 240.18240375 -30.32486908 241.46449316 -30.50492859 242.78543377 C-31 246 -31 246 -32 250 C-58.4 250 -84.8 250 -112 250 C-115.39351578 225.18352737 -118.78426595 200.36668203 -122.16993713 175.54913807 C-123.74200993 164.02624362 -125.31533598 152.50352288 -126.89160156 140.98120117 C-128.26528336 130.93972022 -129.63662481 120.89792293 -131.00514317 110.85573691 C-131.73001005 105.53727806 -132.45605717 100.2189863 -133.18490601 94.90107155 C-133.87067913 89.89717642 -134.55332563 84.89286476 -135.23356247 79.88821411 C-135.48394726 78.0502261 -135.73548012 76.21239406 -135.98823929 74.37473106 C-136.33289369 71.86768689 -136.67343059 69.36011661 -137.01293945 66.85237122 C-137.11410411 66.1237643 -137.21526876 65.39515738 -137.31949902 64.64447147 C-137.80495644 61.02486516 -138 57.67428764 -138 54 C-97.905 53.505 -97.905 53.505 -57 53 C-52.35498756 39.78537855 -52.35498756 39.78537855 -47.75756836 26.55419922 C-47.16169654 24.88708562 -46.56422596 23.22054222 -45.96484375 21.5546875 C-45.67677856 20.70011963 -45.38871338 19.84555176 -45.09191895 18.96508789 C-42.95895771 13.12384665 -40.39585379 9.25488122 -35 6 C-31.53076172 4.76806641 -31.53076172 4.76806641 -27.9296875 4.1015625 C-27.28556915 3.97687592 -26.64145081 3.85218933 -25.97781372 3.72372437 C-23.94682427 3.33640737 -21.91171249 2.98083163 -19.875 2.625 C-18.50353465 2.36523558 -17.13243527 2.10353105 -15.76171875 1.83984375 C-10.44188882 0.84030184 -5.43892738 0 0 0 Z M-131 60 C-129.3062429 75.29262441 -129.3062429 75.29262441 -127.36611938 90.5504303 C-127.22092047 91.62313769 -127.22092047 91.62313769 -127.07278824 92.71751595 C-126.97263287 93.45711996 -126.87247749 94.19672398 -126.76928711 94.95874023 C-126.55369911 96.56239584 -126.33828612 98.16607498 -126.12303162 99.76977539 C-125.54656239 104.06036388 -124.96747842 108.35059533 -124.38770366 112.64073825 C-123.9022058 116.23502857 -123.41799851 119.8294923 -122.93376833 123.42395359 C-121.79264502 131.89430502 -120.64934546 140.36436069 -119.50463867 148.83422852 C-118.32457427 157.56600094 -117.14822585 166.29826843 -115.97365373 175.03078121 C-114.96170487 182.55328252 -113.94750288 190.07547768 -112.93147284 197.59742886 C-112.32599249 202.08012946 -111.72136739 206.56294117 -111.11890984 211.04604912 C-110.55432797 215.24656176 -109.98693866 219.4466856 -109.41735268 223.64652252 C-109.20872915 225.18835706 -109.00110707 226.73032748 -108.79454803 228.27243996 C-108.51306043 230.37275201 -108.22799611 232.47254802 -107.94200134 234.57225037 C-107.78328521 235.7481243 -107.62456907 236.92399824 -107.46104336 238.13550472 C-107.06916437 241.06160407 -107.06916437 241.06160407 -106 244 C-83.23 244 -60.46 244 -37 244 C-36.27820557 238.63927246 -35.55641113 233.27854492 -34.81274414 227.75537109 C-32.43074628 210.06543811 -30.04772698 192.37564284 -27.66417789 174.68591881 C-26.21872376 163.95816164 -24.77362129 153.23035731 -23.3293457 142.50244141 C-22.07056022 133.15233177 -20.81111592 123.80231116 -19.55087942 114.45239699 C-18.88358029 109.50141447 -18.21661182 104.5503879 -17.55043221 99.59925461 C-16.92334784 94.93876103 -16.29538238 90.27838701 -15.66674232 85.61810303 C-15.43623694 83.90813183 -15.20605291 82.19811727 -14.97621536 80.48805618 C-14.66214164 78.15161784 -14.34690732 75.81533887 -14.03138733 73.47909546 C-13.85532487 72.17199301 -13.67926241 70.86489056 -13.49786472 69.51817894 C-13.04784389 66.33809054 -12.52801211 63.16807264 -12 60 C-51.27 60 -90.54 60 -131 60 Z " fill="#000000" transform="translate(194,0)"/>
<path d="M0 0 C35.97 0 71.94 0 109 0 C108.34 5.28 107.68 10.56 107 16 C72.35 16 37.7 16 2 16 C0 7 0 7 0 0 Z " fill="#000000" transform="translate(68,64)"/>
<path d="M0 0 C7.55045025 6.32162472 13.28607309 14.88567263 15.125 24.6875 C15.96733724 37.07400013 15.04012607 47.77555694 6.88671875 57.77734375 C-1.31821972 66.67360741 -10.1133212 72.95814944 -22.48828125 73.98828125 C-35.6991441 74.03013192 -46.47564276 71.62221942 -56.36328125 62.35546875 C-65.33879002 52.7923653 -69.46672101 43.09664958 -69.18359375 29.90625 C-67.8739267 16.24592527 -61.39501054 7.09444213 -51.19140625 -1.58984375 C-35.73576133 -13.08383939 -15.06117619 -11.00624414 0 0 Z M-44.875 1.6875 C-45.926875 2.265 -46.97875 2.8425 -48.0625 3.4375 C-55.49039232 9.37981386 -59.84065291 16.07587197 -62.625 25.125 C-63.72425596 36.39237362 -62.10067107 45.883609 -55.125 55.125 C-51.49201852 59.31535202 -47.89208929 62.32764538 -42.875 64.6875 C-41.87919922 65.16316406 -41.87919922 65.16316406 -40.86328125 65.6484375 C-31.39271955 69.46467123 -20.66189791 68.84482207 -11.34375 64.953125 C-2.14666746 60.23816496 4.18119367 53.23769769 8.125 43.6875 C10.85700666 35.20199588 9.84112382 25.25721166 6.44921875 17.15234375 C2.02336355 8.9142475 -6.29337741 1.13367519 -15.28515625 -1.83984375 C-25.39495313 -3.6849198 -35.80210643 -3.41600263 -44.875 1.6875 Z " fill="#000000" transform="translate(148.875,120.3125)"/>
<path d="M0 0 C0.66 0.33 1.32 0.66 2 1 C8.35692906 3.11897635 13.83990074 2.05336642 20 0 C23.34594658 5.18082051 24.56826496 8.84777564 25 15 C26.1446875 15.1546875 26.1446875 15.1546875 27.3125 15.3125 C30.22117209 16.05657891 31.38010972 16.48017068 33 19 C33 21.5 33 21.5 32 24 C23.84758742 30.87859812 10.03650085 29.74028419 0 29 C-6.28346934 28.03059088 -10.78106774 26.96853753 -15 22 C-15.0625 19.9375 -15.0625 19.9375 -14 18 C-11.09303401 15.85802506 -9.64478912 15 -6 15 C-5.90203125 14.41992188 -5.8040625 13.83984375 -5.703125 13.2421875 C-4.68120485 7.90353568 -3.31626744 4.31114768 0 0 Z M-6 18 C-6 18.66 -6 19.32 -6 20 C-5.34 19.67 -4.68 19.34 -4 19 C-4.66 18.67 -5.32 18.34 -6 18 Z M23 18 C22.67 18.66 22.34 19.32 22 20 C22.99 19.67 23.98 19.34 25 19 C24.34 18.67 23.68 18.34 23 18 Z M-4 20 C-1.05710046 22.94289954 1.11473658 22.97327103 5.234375 23.09765625 C6.39453125 23.08605469 7.5546875 23.07445312 8.75 23.0625 C9.92046875 23.05347656 11.0909375 23.04445312 12.296875 23.03515625 C13.18890625 23.02355469 14.0809375 23.01195312 15 23 C15 22.67 15 22.34 15 22 C8.73 21.34 2.46 20.68 -4 20 Z M15 21 C19 22 19 22 19 22 Z " fill="#000000" transform="translate(113,123)"/>
<path d="M0 0 C21.12 0 42.24 0 64 0 C64 8 64 8 63 12 C42.54 12 22.08 12 1 12 C0.67 8.04 0.34 4.08 0 0 Z " fill="#000000" transform="translate(90,228)"/>
<path d="M0 0 C0.7425 0.185625 1.485 0.37125 2.25 0.5625 C5.21297217 2.99637 5.2884183 6.32349457 6 10 C7.98 9.34 9.96 8.68 12 8 C7.42824353 13.91734436 3.86024094 17.5019044 -3.875 18.5 C-8.80062438 18.32071482 -12.14106357 15.85151497 -16 13 C-16.825 12.443125 -17.65 11.88625 -18.5 11.3125 C-19.2425 10.6628125 -19.2425 10.6628125 -20 10 C-20 9.34 -20 8.68 -20 8 C-18.02 8.66 -16.04 9.32 -14 10 C-13.84144531 9.37351563 -13.68289062 8.74703125 -13.51953125 8.1015625 C-11.61561433 1.43259386 -11.61561433 1.43259386 -8.6875 -0.625 C-5.48788281 -1.07145821 -3.12853217 -0.79877417 0 0 Z M-10 6 C-9.67958603 8.60280568 -9.67958603 8.60280568 -9 11 C-8.01 10.67 -7.02 10.34 -6 10 C-6.66 9.67 -7.32 9.34 -8 9 C-7.67 8.34 -7.34 7.68 -7 7 C-4.67843403 6.59270772 -2.3431213 6.25561323 0 6 C0 6.99 0 7.98 0 9 C-0.99 9.495 -0.99 9.495 -2 10 C-0.68 10 0.64 10 2 10 C1.34 8.02 0.68 6.04 0 4 C-5.58664846 3.39578469 -5.58664846 3.39578469 -10 6 Z " fill="#000000" transform="translate(127,164)"/>
</svg>
