<?xml version="1.0" encoding="UTF-8"?>
<svg version="1.1" xmlns="http://www.w3.org/2000/svg" width="250" height="250">
<path d="M0 0 C4.02381055 16.7493721 7.18217084 33.68786302 10.48950195 50.58959961 C11.28459814 54.64774387 12.08899463 58.70387342 12.90161133 62.75854492 C13.89283322 67.70492368 14.86697952 72.65439586 15.82972145 77.60639381 C16.19507049 79.47107675 16.56609367 81.33465882 16.9433651 83.19696617 C19.38656011 95.28585577 20.48737067 106.66504343 20 119 C20.66 119 21.32 119 22 119 C21.98857971 117.92658356 21.98857971 117.92658356 21.97692871 116.83148193 C21.93159355 109.2017592 22.20976201 101.63099985 22.65625 94.015625 C22.72283813 92.83401794 22.78942627 91.65241089 22.85803223 90.43499756 C23.06886728 86.7064778 23.28435234 82.97824419 23.5 79.25 C23.64484037 76.70314256 23.78937448 74.15626769 23.93359375 71.609375 C24.28552515 65.40604296 24.64162353 59.2029629 25 53 C30.28 53 35.56 53 41 53 C41.1347612 67.68897095 40.60991903 82.32463441 40 97 C41.12892939 94.74214122 41.22387059 93.24544754 41.38891602 90.73388672 C41.4788961 89.41274368 41.4788961 89.41274368 41.57069397 88.06491089 C41.63115402 87.11278717 41.69161407 86.16066345 41.75390625 85.1796875 C41.81907944 84.20589142 41.88425262 83.23209534 41.95140076 82.22879028 C42.15912623 79.1111117 42.36087735 75.99307863 42.5625 72.875 C42.70208136 70.76429692 42.84205034 68.65361943 42.98242188 66.54296875 C43.32611691 61.36226804 43.66490455 56.18126366 44 51 C43.01 51 42.02 51 41 51 C41.5424802 39.5936399 42.54001719 28.3254977 44 17 C46.10448938 17.14109986 48.2085877 17.28804175 50.3125 17.4375 C51.48425781 17.51871094 52.65601563 17.59992187 53.86328125 17.68359375 C57 18 57 18 60 19 C59.31382908 32.88487035 57.88171263 46.67696552 56.4375 60.5 C56.20087743 62.78772998 55.96454719 65.07549022 55.72851562 67.36328125 C55.15570916 72.90920704 54.57931194 78.45475018 54 84 C55.32 84 56.64 84 58 84 C58.11206284 83.45613144 58.22412567 82.91226288 58.33958435 82.35191345 C59.53309698 76.75214377 61.04141934 71.32999249 62.78515625 65.87890625 C63.04630722 65.05293442 63.30745819 64.22696259 63.57652283 63.3759613 C64.12350088 61.64858414 64.67231341 59.92178687 65.22290039 58.19555664 C66.06762353 55.54643218 66.90632917 52.89545816 67.74414062 50.24414062 C68.27829854 48.55978566 68.81279159 46.87553693 69.34765625 45.19140625 C69.59870621 44.3987587 69.84975616 43.60611115 70.1084137 42.78944397 C71.88353494 37.23293012 71.88353494 37.23293012 73 35 C74.77111844 35.47811177 76.54188483 35.9575278 78.3125 36.4375 C79.79169922 36.83775391 79.79169922 36.83775391 81.30078125 37.24609375 C83.21517526 37.78079425 85.11433615 38.37144538 87 39 C87.27777685 44.59168923 86.36757429 48.97477997 84.62890625 54.26953125 C84.38712143 55.03174484 84.14533661 55.79395844 83.89622498 56.57926941 C83.12769586 58.99346353 82.34514785 61.40285093 81.5625 63.8125 C81.04012879 65.44958708 80.51863562 67.08695461 79.99804688 68.72460938 C76.21276395 80.5744721 76.21276395 80.5744721 75 83 C77.64 83.33 80.28 83.66 83 84 C78.25415069 113.64881082 73.31230482 143.2650192 68.3454113 172.87744904 C67.01079726 180.83448882 65.67904153 188.79199519 64.35110015 196.7501514 C63.4034771 202.42777369 62.45279183 208.10487789 61.49975854 213.78159451 C60.93500891 217.14596736 60.37158641 220.51054954 59.81145287 223.87569427 C59.19341261 227.58411347 58.57037936 231.29165951 57.94604492 234.99902344 C57.76270096 236.10614182 57.57935699 237.21326019 57.39045715 238.35392761 C57.22105621 239.35360062 57.05165527 240.35327362 56.87712097 241.38323975 C56.73097445 242.25605465 56.58482794 243.12886955 56.43425274 244.02813339 C56 246 56 246 55 247 C51.92545239 247.09532328 48.87340842 247.1255138 45.79858398 247.11352539 C44.34995972 247.11374443 44.34995972 247.11374443 42.87207031 247.1139679 C39.66338901 247.11326834 36.45476497 247.10547397 33.24609375 247.09765625 C31.02791882 247.09579222 28.80974348 247.09436825 26.59156799 247.09336853 C20.74059929 247.08954216 14.88965523 247.07971086 9.03869629 247.06866455 C3.07332696 247.05845299 -2.89204633 247.05387146 -8.85742188 247.04882812 C-20.57162544 247.03808869 -32.28581067 247.02101085 -44 247 C-44.22026855 245.70122421 -44.44053711 244.40244843 -44.66748047 243.0643158 C-46.78396786 230.58492319 -48.90060683 218.1055563 -51.01737976 205.62621212 C-52.31565763 197.97223806 -53.61382973 190.31824606 -54.91189575 182.66423607 C-55.54306716 178.94277916 -56.17435925 175.22134273 -56.80566406 171.49990845 C-57.6427603 166.56524094 -58.47928336 161.63047674 -59.31542969 156.69564819 C-61.33436913 144.78464815 -63.362281 132.87529957 -65.41015625 120.96923828 C-65.97054464 117.70415292 -66.53070292 114.43902816 -67.09078979 111.17389107 C-67.61288081 108.13690321 -68.13854365 105.10054767 -68.66430664 102.06419373 C-68.97690693 100.24277816 -69.28933613 98.42133322 -69.6015625 96.59985352 C-69.74477432 95.77972589 -69.88798615 94.95959827 -70.03553772 94.1146183 C-70.62224278 90.67183638 -71 87.50433175 -71 84 C-67.535 83.505 -67.535 83.505 -64 83 C-64.54358154 81.66376587 -64.54358154 81.66376587 -65.09814453 80.30053711 C-66.47406846 76.91790167 -67.84941539 73.53503186 -69.22460938 70.15209961 C-69.81397619 68.70249377 -70.40348872 67.25294716 -70.99316406 65.8034668 C-72.42745997 62.27769333 -73.85926407 58.75095421 -75.28613281 55.22216797 C-76.43323319 52.38722412 -77.59564628 49.55922086 -78.76855469 46.73486328 C-79.32233376 45.38707227 -79.8760475 44.0392544 -80.4296875 42.69140625 C-80.92452637 41.49845947 -81.41936523 40.3055127 -81.92919922 39.07641602 C-83 36 -83 36 -83 32 C-78.38 30.35 -73.76 28.7 -69 27 C-65.99405658 33.6615778 -63.18096473 40.38044718 -60.453125 47.16015625 C-60.03705994 48.19063583 -59.62099487 49.22111542 -59.19232178 50.28282166 C-57.87674076 53.54212212 -56.56333588 56.8022943 -55.25 60.0625 C-54.35300881 62.28586548 -53.4558748 64.50917336 -52.55859375 66.73242188 C-50.37074422 72.15428293 -48.18467588 77.57685944 -46 83 C-45.34 83 -44.68 83 -44 83 C-44.48797562 81.99770859 -44.97595123 80.99541718 -45.47871399 79.9627533 C-47.12391745 76.10435825 -47.36280961 72.8128902 -47.34057617 68.59594727 C-47.34123329 67.54102837 -47.34123329 67.54102837 -47.34190369 66.46479797 C-47.33983155 64.16504094 -47.31657679 61.86603421 -47.29296875 59.56640625 C-47.28736715 57.96215717 -47.28309972 56.35790292 -47.28010559 54.75364685 C-47.26870111 50.54991257 -47.23927236 46.34649373 -47.20599365 42.1428833 C-47.17519746 37.84594997 -47.16157993 33.54896522 -47.14648438 29.25195312 C-47.11439789 20.83447517 -47.06166646 12.41731328 -47 4 C-41.72 4 -36.44 4 -31 4 C-31 10.27 -31 16.54 -31 23 C-37.435 24.485 -37.435 24.485 -44 26 C-42.47531248 34.31831733 -40.93634903 42.63389394 -39.38330078 50.94696045 C-39.12607869 52.32469603 -38.86924777 53.70250469 -38.61279297 55.0803833 C-37.8356514 59.25533078 -37.05157964 63.42887546 -36.25836182 67.60079956 C-35.88275099 69.58407377 -35.51333111 71.56851729 -35.14404297 73.55297852 C-33.86286136 80.25356707 -32.34903596 86.59227468 -30 93 C-33.04959208 75.47715093 -36.31509506 58.00773015 -39.76391602 40.55957031 C-39.91250061 39.80457245 -40.06108521 39.04957458 -40.21417236 38.271698 C-40.49459041 36.84747575 -40.77661545 35.42356868 -41.06048584 34.00003052 C-42 29.22450976 -42 29.22450976 -42 27 C-34.08 25.515 -34.08 25.515 -26 24 C-24.27563166 31.98855598 -22.62063733 39.98977535 -21 48 C-20.73815918 49.28438965 -20.47631836 50.5687793 -20.20654297 51.89208984 C-16.41212086 70.64267774 -13.96275738 88.94883978 -13.2019043 108.08862305 C-12.99095839 111.13037634 -12.66955659 114.02362228 -12 117 C-11.34 117.33 -10.68 117.66 -10 118 C-10.33 117.34 -10.66 116.68 -11 116 C-11.20563437 114.1764234 -11.35635652 112.34654078 -11.48071289 110.515625 C-11.56072037 109.36682861 -11.64072784 108.21803223 -11.72315979 107.03442383 C-11.80549362 105.78556396 -11.88782745 104.5367041 -11.97265625 103.25 C-12.06002548 101.96697998 -12.14739471 100.68395996 -12.2374115 99.36206055 C-12.42249185 96.63852275 -12.60454767 93.9148043 -12.78442383 91.19091797 C-13.01344966 87.7254513 -13.24919979 84.26048389 -13.48720646 80.79562378 C-13.71495791 77.46814452 -13.93735419 74.14031439 -14.16015625 70.8125 C-14.24451431 69.57983398 -14.32887238 68.34716797 -14.41578674 67.07714844 C-14.85507717 60.36670872 -15.08532944 53.72475396 -15 47 C-7.08 46.505 -7.08 46.505 1 46 C1.55611646 53.26893291 2.10720279 60.5382254 2.65405273 67.80786133 C2.83991641 70.2698747 3.02704646 72.73179286 3.21557617 75.19360352 C4.43436252 91.12232855 5.43191076 107.03406539 6 123 C6.99 123 7.98 123 9 123 C8.67 122.34 8.34 121.68 8 121 C7.76125435 118.56404479 7.57533462 116.14642856 7.42749023 113.70458984 C7.37857635 112.95327286 7.32966248 112.20195587 7.27926636 111.4278717 C7.11826753 108.93913841 6.96341446 106.45006214 6.80859375 103.9609375 C6.69829903 102.23741275 6.58762222 100.5139124 6.47657776 98.79043579 C6.18506913 94.24999302 5.89876581 89.70923628 5.61352539 85.168396 C5.32164996 80.53654337 5.02488028 75.90500467 4.72851562 71.2734375 C4.14753849 62.18259312 3.57205694 53.09140975 3 44 C-0.63 44 -4.26 44 -8 44 C-9.14176974 38.34049638 -10.28103927 32.6804975 -11.41796875 27.02001953 C-11.80529769 25.09344801 -12.19331609 23.16701497 -12.58203125 21.24072266 C-13.13982474 18.47594524 -13.69515732 15.7106834 -14.25 12.9453125 C-14.42499023 12.0806839 -14.59998047 11.2160553 -14.78027344 10.32522583 C-16 4.22774341 -16 4.22774341 -16 2 C-14.27192682 1.66104344 -12.54248026 1.32908475 -10.8125 1 C-9.84957031 0.814375 -8.88664062 0.62875 -7.89453125 0.4375 C-5.20131375 0.03042799 -2.71612318 -0.03202503 0 0 Z M-64 90 C-59.1996371 121.04331797 -54.0095273 152.01816837 -48.78033447 182.99176025 C-47.47599165 190.72075376 -46.17463183 198.45025003 -44.8727417 206.17965698 C-42.9173812 217.78681376 -40.95835617 229.3933465 -39 241 C-9.63 241 19.74 241 50 241 C51.19712618 236.21149527 52.300135 231.70030141 53.10694885 226.87728882 C53.30177856 225.72222336 53.49660828 224.5671579 53.69734192 223.37709045 C53.90364731 222.13422775 54.1099527 220.89136505 54.32250977 219.61083984 C54.54750572 218.26961231 54.77278409 216.92843212 54.99832153 215.58729553 C55.60648549 211.96605594 56.21072017 208.34417073 56.81422544 204.72215223 C57.44806419 200.92226243 58.08555235 197.12298494 58.72264099 193.32363892 C59.92809429 186.13141516 61.13028617 178.93865027 62.33129591 171.74568331 C63.69527068 163.57768767 65.06290829 155.41030671 66.43084633 147.24297404 C69.62642622 128.16296478 72.8195763 109.08254217 76 90 C67.42 90 58.84 90 50 90 C48.824375 92.454375 47.64875 94.90875 46.4375 97.4375 C39.56179404 111.36301597 30.93483036 121.5975651 16 127 C5.37896875 129.59331556 -3.95044325 127.90766165 -13.4453125 122.64453125 C-26.07549512 114.65968698 -32.22881534 103.46609755 -38 90 C-46.58 90 -55.16 90 -64 90 Z M-29 96 C-28 98 -28 98 -28 98 Z " fill="#000000" transform="translate(123,3)"/>
<path d="M0 0 C5.81007664 5.51774574 10.27996185 12.73734694 10.92578125 20.87890625 C11.14704387 31.48786664 9.29226885 39.6132252 2.58203125 47.98828125 C-4.91548961 55.4548845 -13.28878699 58.76754593 -23.625 59.25 C-33.06489296 59.0408057 -41.49188001 55.36655499 -48.3125 48.875 C-55.11410513 41.42415074 -58.51761384 33.01348394 -58.3125 22.875 C-57.13140042 13.37594382 -53.54262447 5.24575773 -46.1015625 -0.97265625 C-31.26723759 -11.27567713 -14.16394527 -11.87673041 0 0 Z M-46.3125 6.875 C-51.76828706 15.04447281 -53.555611 22.44119623 -51.921875 32.2109375 C-49.96122097 39.3748657 -45.35265202 45.26543562 -39.1171875 49.29296875 C-31.53912825 53.16588833 -24.71436257 53.77674789 -16.3125 52.875 C-7.00631683 49.86259389 -1.12644075 45.01771931 3.5 36.5625 C6.14788537 28.34011913 6.43517388 20.92492414 2.8359375 13 C-1.03056682 5.70708129 -6.87959275 0.57996433 -14.5625 -2.375 C-26.17362622 -4.69722524 -38.34549975 -2.5650654 -46.3125 6.875 Z " fill="#000000" transform="translate(152.3125,158.125)"/>
<path d="M0 0 C5.28 0 10.56 0 16 0 C16 17.49 16 34.98 16 53 C13.03 53 10.06 53 7 53 C6.97494385 53.72477539 6.9498877 54.44955078 6.92407227 55.19628906 C6.80651383 58.54763745 6.68452697 61.89881146 6.5625 65.25 C6.52318359 66.38953125 6.48386719 67.5290625 6.44335938 68.703125 C6.16800232 76.1589468 5.69021742 83.57105863 5 91 C4.34 91 3.68 91 3 91 C0.54622035 79.25706485 -0.41666318 68.13165141 -0.29296875 56.15234375 C-0.2873524 54.51754655 -0.283092 52.88274419 -0.28010559 51.24794006 C-0.26881686 47.00818179 -0.23949383 42.76874691 -0.20599365 38.52911377 C-0.17494183 34.17765677 -0.16152636 29.82614595 -0.14648438 25.47460938 C-0.11460333 16.98291017 -0.06197271 8.49153294 0 0 Z " fill="#000000" transform="translate(139,0)"/>
<path d="M0 0 C0.83015625 0.14824219 1.6603125 0.29648438 2.515625 0.44921875 C6.93892867 1.097797 10.3925531 0.99231977 14.765625 0.13671875 C16.91868457 3.99428382 18.15815754 6.6880166 17.765625 11.13671875 C19.745625 11.79671875 21.725625 12.45671875 23.765625 13.13671875 C24.260625 15.61171875 24.260625 15.61171875 24.765625 18.13671875 C13.5680061 24.24709455 3.57449942 24.10266043 -8.66796875 21.0859375 C-11.26437523 20.12562277 -12.49139457 19.24602049 -14.234375 17.13671875 C-12.86453997 13.97556099 -12.2453112 13.14400955 -9.234375 11.13671875 C-8.244375 11.13671875 -7.254375 11.13671875 -6.234375 11.13671875 C-6.0796875 9.52796875 -6.0796875 9.52796875 -5.921875 7.88671875 C-4.5267575 0.27698691 -4.5267575 0.27698691 0 0 Z M0.765625 17.13671875 C0.765625 17.46671875 0.765625 17.79671875 0.765625 18.13671875 C3.735625 18.13671875 6.705625 18.13671875 9.765625 18.13671875 C9.765625 17.80671875 9.765625 17.47671875 9.765625 17.13671875 C6.795625 17.13671875 3.825625 17.13671875 0.765625 17.13671875 Z " fill="#000000" transform="translate(123.234375,159.86328125)"/>
<path d="M0 0 C3 2 3 2 3.6875 5.125 C3.790625 6.07375 3.89375 7.0225 4 8 C5.65 7.34 7.3 6.68 9 6 C6.97117766 10.80944179 3.72156546 12.9776961 -1 15 C-6.44114591 15.09381286 -9.81439646 13.4068866 -14 10 C-15.375 7.75 -15.375 7.75 -16 6 C-13.525 6.99 -13.525 6.99 -11 8 C-10.8453125 6.576875 -10.8453125 6.576875 -10.6875 5.125 C-9.37211442 -0.85402537 -5.29726429 -0.37837602 0 0 Z M-8 4 C-7.67 5.65 -7.34 7.3 -7 9 C-6.34 8.34 -5.68 7.68 -5 7 C-5.66 7 -6.32 7 -7 7 C-7 6.34 -7 5.68 -7 5 C-4.69 5 -2.38 5 0 5 C0 5.66 0 6.32 0 7 C-0.99 7.495 -0.99 7.495 -2 8 C-1.01 8 -0.02 8 1 8 C1 6.68 1 5.36 1 4 C-2.37817425 3.15545644 -4.67465243 2.89155081 -8 4 Z " fill="#000000" transform="translate(133,192)"/>
</svg>
